<?xml version="1.0" encoding="UTF-8"?>
<svg width="41px" height="44px" viewBox="0 0 41 44" version="1.1" xmlns="http://www.w3.org/2000/svg" xmlns:xlink="http://www.w3.org/1999/xlink">
    <title>okada-logo-dots</title>
    <defs>
        <polygon id="path-1" points="0 0 13.2632508 0 13.2632508 13.3150044 0 13.3150044"></polygon>
    </defs>
    <g id="Desktop" stroke="none" stroke-width="1" fill="none" fill-rule="evenodd">
        <g id="Artboard" transform="translate(-747.000000, -489.000000)">
            <g id="okada-logo-dots" transform="translate(747.301471, 489.000000)">
                <path d="M26.5275758,21.8482044 C26.5275758,25.5251822 23.5586151,28.5057452 19.8959505,28.5057452 C16.2332858,28.5057452 13.2643251,25.5251822 13.2643251,21.8482044 C13.2643251,18.1712267 16.2332858,15.1906637 19.8959505,15.1906637 C23.5586151,15.1906637 26.5275758,18.1712267 26.5275758,21.8482044" id="Fill-12" fill="#882065"></path>
                <path d="M13.2632508,29.443517 C13.2632508,33.1201096 10.29429,36.1010578 6.63162538,36.1010578 C2.96896073,36.1010578 0,33.1201096 0,29.443517 C0,25.7665393 2.96896073,22.7859763 6.63162538,22.7859763 C10.29429,22.7859763 13.2632508,25.7665393 13.2632508,29.443517" id="Fill-14" fill="#882065"></path>
                <path d="M13.2632508,14.2527763 C13.2632508,17.9297541 10.29429,20.910317 6.63162538,20.910317 C2.96896073,20.910317 0,17.9297541 0,14.2527763 C0,10.5757985 2.96896073,7.59523556 6.63162538,7.59523556 C10.29429,7.59523556 13.2632508,10.5757985 13.2632508,14.2527763" id="Fill-16" fill="#882065"></path>
                <path d="M39.7919009,29.443517 C39.7919009,33.1201096 36.8229402,36.1010578 33.1602755,36.1010578 C29.4976109,36.1010578 26.5286502,33.1201096 26.5286502,29.443517 C26.5286502,25.7665393 29.4976109,22.7859763 33.1602755,22.7859763 C36.8229402,22.7859763 39.7919009,25.7665393 39.7919009,29.443517" id="Fill-18" fill="#882065"></path>
                <path d="M39.7919009,14.2527763 C39.7919009,17.9297541 36.8229402,20.910317 33.1602755,20.910317 C29.4976109,20.910317 26.5286502,17.9297541 26.5286502,14.2527763 C26.5286502,10.5757985 29.4976109,7.59523556 33.1602755,7.59523556 C36.8229402,7.59523556 39.7919009,10.5757985 39.7919009,14.2527763" id="Fill-20" fill="#882065"></path>
                <g id="Group-24" transform="translate(13.263941, 0.000000)">
                    <mask id="mask-2" fill="white">
                        <use xlink:href="#path-1"></use>
                    </mask>
                    <g id="Clip-23"></g>
                    <path d="M13.2632508,6.6574637 C13.2632508,10.3344415 10.29429,13.3150044 6.63162538,13.3150044 C2.96896073,13.3150044 0,10.3344415 0,6.6574637 C0,2.98048593 2.96896073,-7.7037037e-05 6.63162538,-7.7037037e-05 C10.29429,-7.7037037e-05 13.2632508,2.98048593 13.2632508,6.6574637" id="Fill-22" fill="#882065" mask="url(#mask-2)"></path>
                </g>
                <path d="M26.5271921,37.0389452 C26.5271921,40.7155378 23.5582314,43.6964859 19.8955668,43.6964859 C16.2329021,43.6964859 13.2639414,40.7155378 13.2639414,37.0389452 C13.2639414,33.3619674 16.2329021,30.3814044 19.8955668,30.3814044 C23.5582314,30.3814044 26.5271921,33.3619674 26.5271921,37.0389452" id="Fill-25" fill="#882065"></path>
            </g>
        </g>
    </g>
</svg>