<?xml version="1.0" encoding="UTF-8"?>
<svg width="16px" height="29px" viewBox="0 0 16 29" version="1.1" xmlns="http://www.w3.org/2000/svg" xmlns:xlink="http://www.w3.org/1999/xlink">
    <title>pagi-arrow-left</title>
    <g id="Page-1" stroke="none" stroke-width="1" fill="none" fill-rule="evenodd">
        <g id="1.0-Homepage" transform="translate(-1220.000000, -2895.000000)" fill="#979797" fill-rule="nonzero">
            <path d="M1228.48457,2916.63672 C1228.74239,2916.63672 1228.96339,2916.54464 1229.14755,2916.36048 L1229.14755,2916.36048 L1242.10335,2903.40467 C1242.28751,2903.22051 1242.37959,2902.99952 1242.37959,2902.74169 C1242.37959,2902.48386 1242.28751,2902.26287 1242.10335,2902.07871 C1241.91919,2901.89455 1241.69819,2901.80246 1241.44037,2901.80246 C1241.18254,2901.80246 1240.96155,2901.89455 1240.77738,2902.07871 L1240.77738,2902.07871 L1228.48457,2914.37153 L1215.99838,2901.88534 C1215.81422,2901.71959 1215.59322,2901.63672 1215.3354,2901.63672 C1215.07757,2901.63672 1214.85657,2901.71959 1214.67241,2901.88534 C1214.58033,2901.97742 1214.51127,2902.08331 1214.46523,2902.20302 C1214.41919,2902.32272 1214.39617,2902.43782 1214.39617,2902.54832 C1214.39617,2902.67723 1214.41919,2902.80154 1214.46523,2902.92125 C1214.51127,2903.04095 1214.58033,2903.14685 1214.67241,2903.23893 L1214.67241,2903.23893 L1227.82158,2916.36048 C1228.00575,2916.54464 1228.22674,2916.63672 1228.48457,2916.63672 Z" id="pagi-arrow-left" transform="translate(1228.387882, 2909.136719) rotate(-270.000000) translate(-1228.387882, -2909.136719) "></path>
        </g>
    </g>
</svg>