<svg width="32" height="32" viewBox="0 0 32 32" fill="none" xmlns="http://www.w3.org/2000/svg">
<g id="Group 2998">
<path id="Vector" d="M24 24C23.7454 24.2546 23.4001 24.3976 23.04 24.3976C22.6799 24.3976 22.3346 24.2546 22.08 24L16 17.92L9.92 24C9.66539 24.2546 9.32007 24.3976 8.96 24.3976C8.59993 24.3976 8.25461 24.2546 8 24C7.74539 23.7454 7.60236 23.4001 7.60236 23.04C7.60235 22.6799 7.74539 22.3346 8 22.08L14.08 16L8 9.92C7.74539 9.66539 7.60236 9.32007 7.60235 8.96C7.60235 8.59993 7.74539 8.25461 8 8C8.25461 7.74539 8.59993 7.60236 8.96 7.60236C9.32007 7.60236 9.66539 7.74539 9.92 8L16 14.08L22.08 8C22.3346 7.74539 22.6799 7.60236 23.04 7.60236C23.4001 7.60236 23.7454 7.74539 24 8C24.2546 8.25461 24.3976 8.59993 24.3976 8.96C24.3976 9.32007 24.2546 9.66539 24 9.92L17.92 16L24 22.08C24.2546 22.3346 24.3976 22.6799 24.3976 23.04C24.3976 23.4001 24.2546 23.7454 24 24Z" fill="white"/>
</g>
</svg>
