<?xml version="1.0" encoding="UTF-8"?>
<svg width="100px" height="78px" viewBox="0 0 100 78" version="1.1" xmlns="http://www.w3.org/2000/svg" xmlns:xlink="http://www.w3.org/1999/xlink">
    <title>header-logo</title>
    <defs>
        <polygon id="path-1" points="0 0 17.2203624 0 17.2203624 16.2043187 0 16.2043187"></polygon>
        <polygon id="path-3" points="0 0 13.2632508 0 13.2632508 13.3150044 0 13.3150044"></polygon>
    </defs>
    <g id="Page-1" stroke="none" stroke-width="1" fill="none" fill-rule="evenodd">
        <g id="1.0-Homepage" transform="translate(-908.000000, -20.000000)">
            <g id="header-logo" transform="translate(908.000000, 20.000000)">
                <path d="M27.4374483,57.2361304 L27.5395088,57.2361304 C28.2332127,56.4780859 31.2129166,53.4254933 31.8049438,52.7290785 C32.376252,52.0526933 32.8251644,51.540397 32.8251644,51.1925748 C32.8251644,50.9668563 32.743823,50.8235674 32.5393184,50.7823526 C32.3559166,50.741523 32.2741915,50.7006933 32.2741915,50.5778193 C32.2741915,50.4345304 32.376252,50.3933156 32.6010918,50.3933156 C33.0292852,50.3933156 34.1519498,50.45456 34.7029227,50.45456 C35.3352369,50.45456 36.4579015,50.3933156 37.0905994,50.3933156 C37.2943366,50.3933156 37.4374514,50.4345304 37.4374514,50.5778193 C37.4374514,50.7211081 37.3353909,50.7619378 37.1312701,50.7619378 C36.8458079,50.7619378 36.3355057,50.8439822 35.9475994,50.9872711 C35.3149015,51.2334044 34.6211976,51.6636563 33.7437082,52.5237748 C33.1110103,53.1385304 30.0296296,56.211923 29.335542,56.9491674 C30.0703003,57.9121304 34.0698411,62.2354489 34.8659891,62.9931081 C35.7638139,63.8536119 36.6823577,64.7757452 37.7843033,65.2056119 C38.3962822,65.4517452 38.8049076,65.5133748 39.0493154,65.5133748 C39.1924302,65.5133748 39.314826,65.5542044 39.314826,65.6770785 C39.314826,65.8203674 39.2131492,65.881997 38.8248592,65.881997 L37.049545,65.881997 C36.4375662,65.881997 36.0699952,65.881997 35.6414181,65.8411674 C34.5394725,65.7387081 33.9884997,65.2876563 33.1110103,64.509197 C32.2131855,63.710323 28.192542,58.9775526 27.763965,58.383597 L27.5395088,58.0762193 L27.4374483,58.0762193 L27.4374483,59.9405156 C27.4374483,61.8252267 27.4374483,63.44416 27.4984544,64.3246933 C27.5395088,64.8986193 27.7229106,65.3492859 28.2332127,65.4309452 C28.5190586,65.47216 28.967971,65.5133748 29.2334816,65.5133748 C29.396548,65.5133748 29.4986085,65.5746193 29.4986085,65.6770785 C29.4986085,65.8203674 29.335542,65.881997 29.1110858,65.881997 C27.9677021,65.881997 26.6823547,65.8203674 26.1720526,65.8203674 C25.7028048,65.8203674 24.4170737,65.881997 23.6005903,65.881997 C23.3354634,65.881997 23.1927323,65.8203674 23.1927323,65.6770785 C23.1927323,65.5746193 23.2744574,65.5133748 23.5192489,65.5133748 C23.8254302,65.5133748 24.0702218,65.47216 24.2540073,65.4309452 C24.6622489,65.3492859 24.7639257,64.8986193 24.8456508,64.3046637 C24.9477112,63.44416 24.9477112,61.8252267 24.9477112,59.9405156 L24.9477112,56.334797 C24.9477112,53.2205748 24.9477112,52.6466489 24.9070405,51.9914489 C24.8663698,51.2946489 24.7029196,50.9668563 24.0295511,50.8235674 C23.8664846,50.7823526 23.5192489,50.7619378 23.233403,50.7619378 C23.0089468,50.7619378 22.8869347,50.7211081 22.8869347,50.5778193 C22.8869347,50.4345304 23.0296659,50.3933156 23.3358471,50.3933156 C24.4170737,50.3933156 25.7028048,50.45456 26.1923879,50.45456 C26.6823547,50.45456 27.9680858,50.3933156 28.6617897,50.3933156 C28.9480193,50.3933156 29.0907505,50.4345304 29.0907505,50.5778193 C29.0907505,50.7211081 28.9683547,50.7619378 28.8049045,50.7619378 C28.6007837,50.7619378 28.4783879,50.7823526 28.2332127,50.8235674 C27.6822399,50.9260267 27.5191734,51.2742341 27.4785027,51.9914489 C27.4374483,52.6466489 27.4374483,53.2205748 27.4374483,56.334797 L27.4374483,57.2361304 Z" id="Fill-1" fill="#882065"></path>
                <path d="M47.8878248,60.651837 C47.786148,60.651837 47.7450937,60.6926667 47.7040393,60.8159259 L46.6024773,63.6223852 C46.3979728,64.1346815 46.2959124,64.626563 46.2959124,64.8723111 C46.2959124,65.2409333 46.4796979,65.5074815 47.1123958,65.5074815 L47.418577,65.5074815 C47.6633686,65.5074815 47.7247583,65.5486963 47.7247583,65.6711852 C47.7247583,65.8352741 47.6023625,65.8764889 47.3775227,65.8764889 C46.7244894,65.8764889 45.847,65.8144741 45.2143021,65.8144741 C44.9898459,65.8144741 43.867565,65.8764889 42.80629,65.8761037 C42.5411631,65.8761037 42.4187674,65.8352741 42.4187674,65.6711852 C42.4187674,65.5486963 42.5001088,65.5074815 42.6635589,65.5074815 C42.8469607,65.5074815 43.1328066,65.4866815 43.2962568,65.4666519 C44.235136,65.3433926 44.6226586,64.6469778 45.0309003,63.6223852 L50.1534894,50.9201333 C50.398281,50.3261778 50.5206767,50.1004593 50.7247976,50.1004593 C50.9085831,50.1004593 51.0309789,50.284963 51.234716,50.7564296 C51.7246828,51.8830963 54.9898489,60.0782963 56.2959154,63.1921333 C57.0713444,65.0364 57.6633716,65.3229778 58.0919486,65.425437 C58.3981299,65.4866815 58.7039275,65.5074815 58.948719,65.5074815 C59.1121692,65.5074815 59.2142296,65.5278963 59.2142296,65.6711852 C59.2142296,65.8352741 59.0304441,65.8764889 58.2757341,65.8764889 C57.5409758,65.8764889 56.0511239,65.8764889 54.4185408,65.8352741 C54.0509698,65.8144741 53.8061782,65.8144741 53.8061782,65.6711852 C53.8061782,65.5486963 53.8879033,65.5074815 54.0916405,65.4866815 C54.2347553,65.4458519 54.3774864,65.2613481 54.275426,65.0156 L52.6428429,60.7951259 C52.6021722,60.6930519 52.5407825,60.651837 52.4391057,60.651837 L47.8878248,60.651837 Z M52.0515831,59.6272444 C52.1532598,59.6272444 52.1735952,59.5663852 52.1532598,59.5047556 L50.3165559,54.4646074 C50.2962205,54.382563 50.2755015,54.2801037 50.2144955,54.2801037 C50.1534894,54.2801037 50.112435,54.382563 50.0920997,54.4646074 L48.2143414,59.4839556 C48.194006,59.5663852 48.2143414,59.6272444 48.2960665,59.6272444 L52.0515831,59.6272444 Z" id="Fill-3" fill="#882065"></path>
                <path d="M65.0867326,56.3290578 C65.0867326,53.2148356 65.0867326,52.6412948 65.0460619,51.9857096 C65.0050076,51.2892948 64.8419411,50.961117 64.1681888,50.8178281 C64.0051224,50.7766133 63.6582704,50.7565837 63.3724245,50.7565837 C63.1479683,50.7565837 63.0255725,50.7153689 63.0255725,50.57208 C63.0255725,50.4287911 63.1683036,50.3875763 63.4744849,50.3875763 C64.5560952,50.3875763 65.8418263,50.4488207 66.4131344,50.4488207 C67.0458323,50.4488207 68.3315634,50.3875763 69.5562885,50.3875763 C72.1070317,50.3875763 75.514929,50.3875763 77.7395393,52.7233393 C78.7601435,53.7883763 79.7189743,55.4889689 79.7189743,57.9271911 C79.7189743,60.5087022 78.637364,62.4754578 77.4947477,63.6429541 C76.5558686,64.605917 74.4333187,66.0607615 70.6578505,66.0607615 C69.9230921,66.0607615 69.0862734,65.9991319 68.3108444,65.9378874 C67.5354154,65.876643 66.8213761,65.8146281 66.311074,65.8146281 C66.0866178,65.8146281 65.6377054,65.8146281 65.1477387,65.8354281 C64.6784909,65.8354281 64.1478535,65.876643 63.7396118,65.876643 C63.4744849,65.876643 63.3313701,65.8146281 63.3313701,65.6713393 C63.3313701,65.56888 63.4130952,65.5076356 63.6578867,65.5076356 C63.9644517,65.5076356 64.2092432,65.4664207 64.392645,65.4255911 C64.8008867,65.3435467 64.9029471,64.89288 64.9846722,64.2989244 C65.0867326,63.4384207 65.0867326,61.8194874 65.0867326,59.9347763 L65.0867326,56.3290578 Z M67.6374758,58.5827763 C67.6374758,60.7544504 67.6581949,62.3317837 67.6785302,62.7212059 C67.6988656,63.233117 67.7399199,64.0527911 67.9029864,64.2781244 C68.1681133,64.6675467 68.9642613,65.0977985 70.5761254,65.0977985 C72.6580045,65.0977985 74.0457961,64.6879615 75.2701375,63.6225393 C76.5762039,62.4954874 76.9844456,60.6315763 76.9844456,58.5215319 C76.9844456,55.9192207 75.9028353,54.239043 75.0253459,53.3993393 C73.1479713,51.5962874 70.8213006,51.3505393 69.2297719,51.3505393 C68.8215302,51.3505393 68.0664366,51.4117837 67.9029864,51.4938281 C67.7192009,51.5758726 67.6581949,51.6783319 67.6581949,51.9036652 C67.6374758,52.6004652 67.6374758,54.382717 67.6374758,56.0012652 L67.6374758,58.5827763 Z" id="Fill-5" fill="#882065"></path>
                <path d="M88.6676782,60.651837 C88.5656178,60.651837 88.5245634,60.6930519 88.4838927,60.8159259 L87.3819471,63.6223852 C87.1778263,64.1346815 87.0757659,64.626563 87.0757659,64.8723111 C87.0757659,65.2409333 87.2595514,65.5074815 87.8922492,65.5074815 L88.1980468,65.5074815 C88.4432221,65.5074815 88.5046118,65.5486963 88.5046118,65.6711852 C88.5046118,65.8352741 88.3818323,65.8764889 88.1573761,65.8764889 C87.5043429,65.8764889 86.6272372,65.8144741 85.9941556,65.8144741 C85.7696994,65.8144741 84.6474184,65.8764889 83.5861435,65.8764889 C83.3210166,65.8764889 83.1982372,65.8352741 83.1982372,65.6711852 C83.1982372,65.5486963 83.2799622,65.5074815 83.4434124,65.5074815 C83.6268142,65.5074815 83.9126601,65.4866815 84.0761103,65.4666519 C85.0146057,65.3433926 85.4021284,64.6469778 85.8103701,63.6223852 L90.9333429,50.9201333 C91.1777508,50.3261778 91.3005302,50.1008444 91.5046511,50.1008444 C91.6880529,50.1008444 91.8108323,50.284963 92.0145695,50.7564296 C92.5045363,51.8830963 95.7697024,60.0782963 97.0757689,63.1921333 C97.8511979,65.0364 98.4432251,65.3229778 98.8714184,65.425437 C99.1779834,65.4866815 99.483781,65.5074815 99.7285725,65.5074815 C99.8920227,65.5074815 99.9940831,65.5278963 99.9940831,65.6711852 C99.9940831,65.8352741 99.8102976,65.8764889 99.0552039,65.8764889 C98.3204456,65.8764889 96.8305937,65.8764889 95.1980106,65.8352741 C94.8308233,65.8144741 94.5860317,65.8144741 94.5860317,65.6711852 C94.5860317,65.5486963 94.6677568,65.5074815 94.871494,65.4866815 C95.0146088,65.4458519 95.1573399,65.2613481 95.0552795,65.0156 L93.4226964,60.7951259 C93.3820257,60.6930519 93.320636,60.651837 93.2185755,60.651837 L88.6676782,60.651837 Z M92.8306692,59.6272444 C92.9331133,59.6272444 92.9534486,59.5663852 92.9331133,59.5047556 L91.0960257,54.4646074 C91.076074,54.382563 91.055355,54.2801037 90.9943489,54.2801037 C90.9329592,54.2801037 90.8922885,54.382563 90.8715695,54.4646074 L88.9941949,59.4839556 C88.9738595,59.5663852 88.9941949,59.6272444 89.0759199,59.6272444 L92.8306692,59.6272444 Z" id="Fill-7" fill="#882065"></path>
                <g id="Group-11" transform="translate(0.000000, 49.947641)">
                    <mask id="mask-2" fill="white">
                        <use xlink:href="#path-1"></use>
                    </mask>
                    <g id="Clip-10"></g>
                    <path d="M17.1498728,6.92383456 C16.546335,2.49728641 12.2340903,-0.563395073 7.51782447,0.0871827052 C2.80155861,0.738145668 -0.532670997,4.85423456 0.0704830816,9.28078271 C0.674020846,13.7069457 4.98626556,16.7680123 9.70253142,16.1170494 C14.4187973,15.4660864 17.7530269,11.3499975 17.1498728,6.92383456 M12.3775888,14.0936716 C11.5645586,14.8201309 10.5696613,15.1833605 9.39212961,15.1833605 C7.42957674,15.1833605 5.8526281,14.4364864 4.66128369,12.9419679 C3.51176103,11.529879 2.9369997,9.720279 2.9369997,7.51278271 C2.9369997,5.18202715 3.49756465,3.46833826 4.61946193,2.37133085 C5.50232296,1.50774567 6.66565831,1.07556789 8.10946798,1.07556789 C9.8759574,1.07556789 11.3335798,1.74078271 12.4827187,3.07082715 C13.6740631,4.46904937 14.2703109,6.29251604 14.2703109,8.54084196 C14.2703109,11.1319827 13.6391477,12.9827975 12.3775888,14.0936716" id="Fill-9" fill="#882065" mask="url(#mask-2)"></path>
                </g>
                <path d="M56.8290468,21.8482044 C56.8290468,25.5251822 53.8600861,28.5057452 50.1974215,28.5057452 C46.5347568,28.5057452 43.5657961,25.5251822 43.5657961,21.8482044 C43.5657961,18.1712267 46.5347568,15.1906637 50.1974215,15.1906637 C53.8600861,15.1906637 56.8290468,18.1712267 56.8290468,21.8482044" id="Fill-12" fill="#882065"></path>
                <path d="M43.5647218,29.443517 C43.5647218,33.1201096 40.595761,36.1010578 36.9330964,36.1010578 C33.2704317,36.1010578 30.301471,33.1201096 30.301471,29.443517 C30.301471,25.7665393 33.2704317,22.7859763 36.9330964,22.7859763 C40.595761,22.7859763 43.5647218,25.7665393 43.5647218,29.443517" id="Fill-14" fill="#882065"></path>
                <path d="M43.5647218,14.2527763 C43.5647218,17.9297541 40.595761,20.910317 36.9330964,20.910317 C33.2704317,20.910317 30.301471,17.9297541 30.301471,14.2527763 C30.301471,10.5757985 33.2704317,7.59523556 36.9330964,7.59523556 C40.595761,7.59523556 43.5647218,10.5757985 43.5647218,14.2527763" id="Fill-16" fill="#882065"></path>
                <path d="M70.0933719,29.443517 C70.0933719,33.1201096 67.1244112,36.1010578 63.4617465,36.1010578 C59.7990819,36.1010578 56.8301211,33.1201096 56.8301211,29.443517 C56.8301211,25.7665393 59.7990819,22.7859763 63.4617465,22.7859763 C67.1244112,22.7859763 70.0933719,25.7665393 70.0933719,29.443517" id="Fill-18" fill="#882065"></path>
                <path d="M70.0933719,14.2527763 C70.0933719,17.9297541 67.1244112,20.910317 63.4617465,20.910317 C59.7990819,20.910317 56.8301211,17.9297541 56.8301211,14.2527763 C56.8301211,10.5757985 59.7990819,7.59523556 63.4617465,7.59523556 C67.1244112,7.59523556 70.0933719,10.5757985 70.0933719,14.2527763" id="Fill-20" fill="#882065"></path>
                <g id="Group-24" transform="translate(43.565412, 0.000000)">
                    <mask id="mask-4" fill="white">
                        <use xlink:href="#path-3"></use>
                    </mask>
                    <g id="Clip-23"></g>
                    <path d="M13.2632508,6.6574637 C13.2632508,10.3344415 10.29429,13.3150044 6.63162538,13.3150044 C2.96896073,13.3150044 0,10.3344415 0,6.6574637 C0,2.98048593 2.96896073,-7.7037037e-05 6.63162538,-7.7037037e-05 C10.29429,-7.7037037e-05 13.2632508,2.98048593 13.2632508,6.6574637" id="Fill-22" fill="#882065" mask="url(#mask-4)"></path>
                </g>
                <path d="M56.8286631,37.0389452 C56.8286631,40.7155378 53.8597024,43.6964859 50.1970378,43.6964859 C46.5343731,43.6964859 43.5654124,40.7155378 43.5654124,37.0389452 C43.5654124,33.3619674 46.5343731,30.3814044 50.1970378,30.3814044 C53.8597024,30.3814044 56.8286631,33.3619674 56.8286631,37.0389452" id="Fill-25" fill="#882065"></path>
                <path d="M33.7743647,76.5738519 L34.5006819,72.7855556 C34.5202498,72.6850222 34.5616879,72.634563 34.6253798,72.634563 C34.6840837,72.634563 34.7500776,72.6946519 34.8237453,72.8148296 L36.8265852,76.0916 L38.822135,72.774 C38.8758511,72.6811704 38.9295671,72.634563 38.9836668,72.634563 C39.0469749,72.634563 39.0910988,72.6946519 39.1156547,72.8148296 L39.783268,76.4055259 C39.817416,76.5992741 39.8592378,76.7387111 39.9079659,76.8234519 C39.9570776,76.908963 40.0353495,76.9652 40.1427816,76.992163 C40.3043133,77.0310667 40.4558692,77.0503259 40.5978329,77.0503259 C40.6761048,77.0503259 40.7152408,77.0638074 40.7152408,77.0911556 C40.7152408,77.1339111 40.6515489,77.1550963 40.5245489,77.1550963 C39.9029779,77.1550963 39.4064885,77.1431556 39.034697,77.1200444 C38.8931169,77.1123407 38.822135,77.0911556 38.822135,77.0561037 C38.822135,77.0291407 38.847842,77.0075704 38.8992559,76.992163 C38.9506698,76.9767556 38.9640988,76.8935556 38.9395429,76.7421778 L38.4994553,74.1857037 L38.4699115,74.1857037 L36.8707091,76.8292296 C36.7383375,77.0464741 36.6481713,77.1550963 36.5990595,77.1550963 C36.5549356,77.1550963 36.4693737,77.0580296 36.3423737,76.8638963 C35.8777302,76.1613185 35.5964885,75.7206667 35.4986486,75.5423259 C35.332129,75.2549778 35.0777453,74.8243407 34.7354976,74.2496444 L34.7063375,74.2496444 L34.3245701,76.5622963 C34.30999,76.6516593 34.3027,76.7421778 34.3027,76.8353926 C34.3027,76.9320741 34.375984,76.9944741 34.522552,77.021437 C34.6303677,77.0406963 34.7331955,77.0503259 34.8310353,77.0503259 C34.9043193,77.0503259 34.9407695,77.0638074 34.9407695,77.0911556 C34.9407695,77.1339111 34.8820656,77.1550963 34.7650414,77.1550963 C34.6476335,77.1550963 34.4972287,77.1520148 34.3138269,77.146237 C34.1300414,77.1404593 34.0237604,77.1373778 33.9946003,77.1373778 C33.9550807,77.1373778 33.8464976,77.1404593 33.6680837,77.146237 C33.4892861,77.1520148 33.3561471,77.1550963 33.2682831,77.1550963 C33.1800353,77.1550963 33.1359115,77.1339111 33.1359115,77.0911556 C33.1359115,77.0638074 33.1750474,77.0503259 33.2533193,77.0503259 C33.3315912,77.0503259 33.4048752,77.0445481 33.473555,77.0329926 C33.620123,77.0098815 33.7206486,76.8565778 33.7743647,76.5738519" id="Fill-27" fill="#882065"></path>
                <path d="M44.6000979,75.6383141 L42.9640616,75.6383141 C42.9345178,75.6383141 42.9126477,75.6541067 42.897684,75.6849215 L42.5017202,76.5157659 C42.4284363,76.6706104 42.3916024,76.7888622 42.3916024,76.8701363 C42.3916024,76.9903141 42.4894423,77.050403 42.6851221,77.050403 L42.7952399,77.050403 C42.8685239,77.050403 42.9053577,77.0658104 42.9053577,77.0970104 C42.9053577,77.1355289 42.863536,77.1551733 42.7806598,77.1551733 C42.7020042,77.1551733 42.5711674,77.1520919 42.3881492,77.1463141 C42.2043637,77.1405363 42.0762127,77.1374548 42.0029287,77.1374548 C41.5774211,77.1490104 41.2888894,77.1551733 41.1369498,77.1551733 C41.0440979,77.1551733 40.9976719,77.1355289 40.9976719,77.0970104 C40.9976719,77.0658104 41.026832,77.050403 41.085536,77.050403 C41.1638079,77.050403 41.2397776,77.0465511 41.3130616,77.0388474 C41.4696054,77.02344 41.5966054,76.9691289 41.694829,76.8759141 C41.7727172,76.8023437 41.8536749,76.6821659 41.9365511,76.5157659 L43.7782429,72.8669067 C43.8565148,72.7120622 43.9251946,72.63464 43.9838985,72.63464 C44.0376145,72.63464 44.0986205,72.6966548 44.1673003,72.8206844 C44.6173637,73.7193215 45.2235873,74.9103141 45.9867384,76.3936622 C46.1920103,76.7773067 46.407258,76.9883881 46.6324816,77.0269067 C46.7203456,77.0426993 46.8231734,77.050403 46.9405813,77.050403 C47.0042731,77.050403 47.0357353,77.0658104 47.0357353,77.0970104 C47.0357353,77.1201215 47.0115631,77.1355289 46.9624514,77.1432326 C46.9137233,77.1509363 46.8254755,77.1551733 46.6984755,77.1551733 C46.0918683,77.1551733 45.6295269,77.1509363 45.311835,77.1432326 C45.1648834,77.1393807 45.0915994,77.1239733 45.0915994,77.0970104 C45.0915994,77.0658104 45.1257474,77.048477 45.1944272,77.0446252 C45.2726991,77.0253659 45.2945692,76.9806844 45.2604211,76.9109659 L44.6733819,75.6791437 C44.6588018,75.6521807 44.6342459,75.6383141 44.6000979,75.6383141 M43.1106296,75.3478844 L44.4608199,75.3478844 C44.494968,75.3478844 44.5072459,75.3363289 44.4972701,75.3128326 L43.8369468,73.8780178 C43.826971,73.8429659 43.8150767,73.8256326 43.8004967,73.8256326 C43.7809287,73.8256326 43.765965,73.8429659 43.7563728,73.8780178 L43.0814695,75.30744 C43.0714937,75.334403 43.0814695,75.3478844 43.1106296,75.3478844" id="Fill-29" fill="#882065"></path>
                <path d="M48.4810798,73.9243556 L48.5616538,76.3645037 C48.5766175,76.752 48.6617958,76.9669333 48.8187233,77.0096889 C48.8333033,77.0135407 48.9288411,77.0231704 49.1045692,77.038963 C49.2515208,77.0543704 49.3248048,77.0736296 49.3248048,77.0967407 C49.3248048,77.1356444 49.268403,77.1549037 49.1563668,77.1549037 C48.9702792,77.1549037 48.7769015,77.1522074 48.5766175,77.1460444 C48.3759498,77.1406519 48.265832,77.1375704 48.246264,77.1375704 C48.251252,77.1375704 48.1584,77.1406519 47.9677082,77.1460444 C47.7770163,77.1522074 47.6055088,77.1549037 47.4539529,77.1549037 C47.3461372,77.1549037 47.2924211,77.1356444 47.2924211,77.0967407 C47.2924211,77.0697778 47.356113,77.0524444 47.483113,77.0447407 C47.5713607,77.037037 47.6569227,77.0293333 47.7401825,77.0212444 C47.8330344,76.9977481 47.8940405,76.9361185 47.9235843,76.8352 C47.9481402,76.7462222 47.9627202,76.5682667 47.9677082,76.300563 L48.0337021,72.8612444 C48.0383063,72.7291259 48.0701523,72.6636444 48.1288562,72.6636444 C48.1679921,72.6636444 48.258542,72.7237333 48.4005057,72.8435259 C48.8014574,73.1848 49.5596205,73.8061037 50.6749952,74.7089778 C51.1737867,75.1195852 51.7117142,75.5610074 52.2891613,76.0336296 L52.3256115,76.0336296 L52.2523275,73.4247704 C52.2473396,73.2814815 52.2377474,73.1824889 52.2227837,73.128563 C52.1836477,73.012237 52.1103637,72.9367407 52.0029317,72.9016889 C51.9296477,72.8785778 51.7999619,72.8670222 51.6138743,72.8670222 C51.5356024,72.8670222 51.4964665,72.8493037 51.4964665,72.814637 C51.4964665,72.7795852 51.5601583,72.7622519 51.6871583,72.7622519 C51.83411,72.7622519 52.0102218,72.7653333 52.2154937,72.7711111 C52.4211492,72.7768889 52.5408592,72.7795852 52.5750073,72.7795852 C52.5799952,72.7795852 52.6655571,72.7768889 52.8320767,72.7711111 C52.9982127,72.7653333 53.1520707,72.7622519 53.2940344,72.7622519 C53.4064544,72.7622519 53.4628562,72.7795852 53.4628562,72.814637 C53.4628562,72.8493037 53.4187323,72.8670222 53.3308683,72.8670222 C53.0860767,72.8670222 52.9372066,72.930963 52.8831069,73.0584593 C52.8589347,73.128563 52.843971,73.2348741 52.8393668,73.3785481 L52.7584091,77.0447407 C52.7534211,77.1645333 52.7219589,77.2246222 52.663255,77.2246222 C52.609539,77.2246222 52.5262792,77.1818667 52.4134755,77.0967407 C51.9442278,76.7288889 51.2225148,76.1595852 50.2491039,75.3884444 C49.916832,75.1288296 49.5423547,74.8214519 49.126823,74.4647704 C48.9165631,74.282963 48.7086054,74.1026963 48.5033335,73.9243556 L48.4810798,73.9243556 Z" id="Fill-31" fill="#882065"></path>
                <path d="M54.8848725,75.4699881 L54.8848725,74.4473215 C54.8848725,73.7539881 54.8798846,73.3433807 54.8702924,73.2154993 C54.8553287,73.02984 54.7724526,72.9212178 54.6208967,72.8900178 C54.5372532,72.8746104 54.453226,72.8669067 54.367664,72.8669067 C54.2817184,72.8669067 54.2391293,72.8476474 54.2391293,72.8087437 C54.2391293,72.7779289 54.2978332,72.7625215 54.4152411,72.7625215 C54.513081,72.7625215 54.6807517,72.765603 54.9178695,72.7709956 C55.1549873,72.7767733 55.3053921,72.7794696 55.369084,72.7794696 C55.4228,72.7794696 55.5597758,72.7767733 55.7800115,72.7709956 C56.0002471,72.765603 56.1613952,72.7625215 56.264223,72.7625215 C56.3670508,72.7625215 56.4184647,72.7779289 56.4184647,72.8087437 C56.4184647,72.8476474 56.3831656,72.8669067 56.3133347,72.8669067 C56.2431202,72.8669067 56.1667668,72.8726844 56.084658,72.88424 C55.9204405,72.9077363 55.8310417,73.0178993 55.8164616,73.2154993 C55.8068695,73.3433807 55.8018816,73.7539881 55.8018816,74.4473215 L55.8018816,75.4699881 C55.8018816,76.1633215 55.8114737,76.5874104 55.8310417,76.7422548 C55.850226,76.9128919 55.9472985,77.0076474 56.1218755,77.0269067 C56.2626882,77.0426993 56.386235,77.050403 56.492516,77.050403 C56.5700205,77.050403 56.6091565,77.0658104 56.6091565,77.0970104 C56.6091565,77.1355289 56.5627305,77.1551733 56.4694949,77.1551733 C56.2837909,77.1551733 56.0574163,77.1520919 55.7911384,77.1463141 C55.5244767,77.1405363 55.369084,77.1374548 55.3249601,77.1374548 C55.2808363,77.1374548 55.1427094,77.1405363 54.9105795,77.1463141 C54.6780659,77.1520919 54.5080931,77.1551733 54.400661,77.1551733 C54.3028211,77.1551733 54.2540931,77.1355289 54.2540931,77.0970104 C54.2540931,77.0696622 54.3078091,77.0523289 54.4152411,77.0446252 C54.4889088,77.0369215 54.5621927,77.0311437 54.6354767,77.0269067 C54.7528846,77.0076474 54.8234828,76.9121215 54.8480387,76.7395585 C54.8725946,76.5673807 54.8848725,76.1440622 54.8848725,75.4699881" id="Fill-33" fill="#882065"></path>
                <path d="M58.8790801,74.447437 L58.8790801,75.4701037 C58.8790801,75.9076741 58.8863701,76.1961778 58.9009502,76.3356148 C58.9205181,76.5447704 58.964642,76.6726519 59.0329381,76.7188741 C59.1553338,76.8043852 59.4511556,76.8471407 59.9211707,76.8471407 C60.3658625,76.8471407 60.6520921,76.7928296 60.7794758,76.6842074 C60.8869079,76.5913778 60.9505997,76.4750519 60.9701677,76.3356148 C60.9797598,76.2774519 61.0066178,76.248563 61.0507417,76.248563 C61.0898776,76.248563 61.1094456,76.2816889 61.1094456,76.3475556 C61.1094456,76.5798222 61.0729955,76.8024593 60.9993278,77.0154667 C60.9701677,77.0967407 60.9114637,77.1452741 60.823216,77.1606815 C60.789068,77.1683852 60.6935302,77.172237 60.5373701,77.172237 C60.1456269,77.172237 59.7323973,77.1664593 59.2972976,77.1549037 C58.8618142,77.1433481 58.5633066,77.1375704 58.4021586,77.1375704 C58.3580347,77.1375704 58.2199079,77.1406519 57.9877779,77.1460444 C57.7552644,77.1522074 57.5852915,77.1549037 57.4778595,77.1549037 C57.3800196,77.1549037 57.3309079,77.1356444 57.3309079,77.0967407 C57.3309079,77.0697778 57.3846239,77.0524444 57.4924396,77.0447407 C57.5657236,77.037037 57.6390076,77.0312593 57.7126752,77.0270222 C57.8250952,77.007763 57.8956934,76.9014519 57.9252372,76.7077037 C57.9497931,76.5567111 57.962071,76.1441778 57.962071,75.4701037 L57.962071,74.447437 C57.962071,73.7541037 57.9570831,73.3431111 57.9474909,73.2156148 C57.9371314,73.0723259 57.8837991,72.9756444 57.7859592,72.9251852 C57.7076873,72.8866667 57.5756994,72.8670222 57.3896118,72.8670222 C57.306352,72.8670222 57.2649139,72.8496889 57.2649139,72.814637 C57.2649139,72.7795852 57.3186299,72.7622519 57.4264456,72.7622519 C57.5534456,72.7622519 57.7391495,72.7653333 57.9839411,72.7711111 C58.2283489,72.7768889 58.3776027,72.7795852 58.4313187,72.7795852 C58.4804305,72.7795852 58.6331375,72.7768889 58.8898233,72.7711111 C59.1468927,72.7653333 59.3268414,72.7622519 59.4292855,72.7622519 C59.5321133,72.7622519 59.5835272,72.7795852 59.5835272,72.814637 C59.5835272,72.8496889 59.5394033,72.8670222 59.4511556,72.8670222 C59.3437236,72.8670222 59.2481858,72.8728 59.1653097,72.8843556 C58.99879,72.9074667 58.9082402,73.0180148 58.8936601,73.2156148 C58.8836843,73.3431111 58.8790801,73.7541037 58.8790801,74.447437" id="Fill-35" fill="#882065"></path>
                <path d="M64.825481,75.6383141 L63.1894447,75.6383141 C63.1599009,75.6383141 63.1380308,75.6541067 63.1230671,75.6849215 L62.7271033,76.5157659 C62.6538193,76.6706104 62.6169855,76.7888622 62.6169855,76.8701363 C62.6169855,76.9903141 62.7148254,77.050403 62.9105051,77.050403 L63.020623,77.050403 C63.0939069,77.050403 63.1307408,77.0658104 63.1307408,77.0970104 C63.1307408,77.1355289 63.088919,77.1551733 63.0056592,77.1551733 C62.9273873,77.1551733 62.7965505,77.1520919 62.6131486,77.1463141 C62.4297468,77.1405363 62.3015958,77.1374548 62.2279281,77.1374548 C61.8024205,77.1490104 61.5138888,77.1551733 61.3623329,77.1551733 C61.269481,77.1551733 61.223055,77.1355289 61.223055,77.0970104 C61.223055,77.0658104 61.2522151,77.050403 61.3113027,77.050403 C61.3891909,77.050403 61.464777,77.0465511 61.5384447,77.0388474 C61.6949885,77.02344 61.8219885,76.9691289 61.9198284,76.8759141 C61.9981003,76.8023437 62.079058,76.6821659 62.1619341,76.5157659 L64.003626,72.8669067 C64.0818979,72.7120622 64.150194,72.63464 64.2088979,72.63464 C64.2629976,72.63464 64.3240036,72.6966548 64.3926834,72.8206844 C64.8423631,73.7193215 65.4489704,74.9103141 66.2121215,76.3936622 C66.4173934,76.7773067 66.6326411,76.9883881 66.8578647,77.0269067 C66.9457287,77.0426993 67.0485565,77.050403 67.1659644,77.050403 C67.2292725,77.050403 67.2611184,77.0658104 67.2611184,77.0970104 C67.2611184,77.1201215 67.2369462,77.1355289 67.1878344,77.1432326 C67.1391063,77.1509363 67.0508586,77.1551733 66.9238586,77.1551733 C66.3172514,77.1551733 65.85491,77.1509363 65.5372181,77.1432326 C65.3902665,77.1393807 65.3169825,77.1239733 65.3169825,77.0970104 C65.3169825,77.0658104 65.3511305,77.048477 65.4198103,77.0446252 C65.4976985,77.0253659 65.5199523,76.9806844 65.4854205,76.9109659 L64.898765,75.6791437 C64.8841849,75.6521807 64.859629,75.6383141 64.825481,75.6383141 M63.3360127,75.3478844 L64.6858193,75.3478844 C64.7203511,75.3478844 64.732629,75.3363289 64.7226532,75.3128326 L64.0623299,73.8780178 C64.0523541,73.8429659 64.0404598,73.8256326 64.0254961,73.8256326 C64.0063118,73.8256326 63.991348,73.8429659 63.9817559,73.8780178 L63.3064689,75.30744 C63.2968767,75.334403 63.3064689,75.3478844 63.3360127,75.3478844" id="Fill-37" fill="#882065"></path>
                <path d="M69.7398438,77.0521363 C69.3227773,77.0521363 68.9766927,76.9157807 68.7012063,76.6426844 C68.4253363,76.3699733 68.2879767,76.0275437 68.2879767,75.6161659 C68.2879767,75.214803 68.4287894,74.8739141 68.7104148,74.5934993 C68.9920402,74.3134696 69.335439,74.1732622 69.7398438,74.1732622 C70.1546082,74.1732622 70.4987743,74.3103881 70.7734934,74.58464 C71.047445,74.8585067 71.1848045,75.202477 71.1848045,75.6161659 C71.1848045,76.015603 71.0443755,76.3541807 70.7642849,76.63344 C70.4838106,76.9123141 70.1423302,77.0521363 69.7398438,77.0521363 M68.5220251,75.6126993 C68.5220251,75.9605215 68.640584,76.2582696 68.8784692,76.5067141 C69.1163544,76.7551585 69.4033514,76.8795733 69.7398438,76.8795733 C70.0863121,76.8795733 70.3744601,76.7574696 70.6050553,76.5140326 C70.8352668,76.2705956 70.9507562,75.9701511 70.9507562,75.6126993 C70.9507562,75.2675733 70.8329647,74.9698252 70.5977653,74.7202252 C70.3621822,74.4706252 70.0763363,74.3458252 69.7398438,74.3458252 C69.3887713,74.3458252 69.0979375,74.4663881 68.867726,74.7075141 C68.6371308,74.94864 68.5220251,75.25024 68.5220251,75.6126993 M69.7509707,75.7413511 L69.5315024,75.7413511 L69.5315024,75.9100622 C69.5315024,76.1500326 69.5422456,76.2833067 69.5644994,76.3102696 C69.5790795,76.327603 69.6255054,76.336077 69.7033937,76.336077 C69.7252637,76.336077 69.7375417,76.3457067 69.7398438,76.3653511 C69.7352396,76.3873067 69.7214269,76.398477 69.6999405,76.398477 L69.6301097,76.398477 L69.5315024,76.398477 L69.3741912,76.398477 L69.2280069,76.398477 L69.1328529,76.398477 L69.0668589,76.398477 C69.0449888,76.398477 69.0338619,76.3884622 69.0338619,76.369203 C69.0338619,76.3495585 69.0472909,76.3399289 69.0745326,76.3399289 C69.1401429,76.3372326 69.181581,76.3302993 69.1984631,76.3195141 C69.215729,76.3083437 69.2264722,76.2775289 69.2314601,76.2259141 C69.236448,76.1646696 69.2387502,76.0175289 69.2387502,75.7852622 L69.2387502,75.4143289 C69.2387502,75.1500919 69.2375991,75.0029511 69.235297,74.973677 C69.2303091,74.9004919 69.1731399,74.8623585 69.0634057,74.8600474 C69.0415356,74.8600474 69.0304088,74.848877 69.0304088,74.8269215 C69.0304088,74.8099733 69.0449888,74.8011141 69.0745326,74.8011141 L69.136306,74.8011141 L69.235297,74.8011141 L69.3887713,74.8011141 L69.503877,74.8011141 L69.6485266,74.8011141 C69.870297,74.8011141 70.0230039,74.8319289 70.1058801,74.8931733 C70.2010341,74.9613511 70.2482275,75.056877 70.2482275,75.1793659 C70.2482275,75.3338252 70.1557592,75.4940622 69.970439,75.6604622 C70.0874631,75.7998993 70.2424722,75.9836326 70.4350825,76.211277 C70.5129707,76.2971733 70.5689888,76.3399289 70.6031369,76.3399289 C70.6273091,76.3399289 70.6399707,76.3507141 70.6399707,76.3726696 C70.6399707,76.390003 70.6250069,76.398477 70.5958468,76.398477 L70.5079828,76.398477 C70.3836686,76.398477 70.2958045,76.3849956 70.2447743,76.3580326 C70.1814662,76.3237511 70.0863121,76.2209067 69.9593121,76.0494993 C69.903294,75.9662993 69.8338468,75.86384 69.7509707,75.7413511 M69.5315024,74.9259141 L69.5315024,75.5942104 C69.5702547,75.6211733 69.6193665,75.6346548 69.6780704,75.6346548 C69.7459828,75.6346548 69.7985477,75.6238696 69.8349979,75.6015289 C69.917874,75.5526104 69.9593121,75.4486104 69.9593121,75.2895289 C69.9593121,75.1743585 69.9293846,75.0826844 69.8699133,75.0141215 C69.8100583,74.9455585 69.7291006,74.911277 69.6266565,74.911277 C69.5825326,74.911277 69.5510704,74.9162844 69.5315024,74.9259141" id="Fill-39" fill="#882065"></path>
                <path d="M70.553603,76.3554904 C70.553603,76.3554904 70.5866,76.3393126 70.6030985,76.3396978 C70.6199807,76.340083 70.7634792,76.3396978 70.7634792,76.3396978 L70.7523523,76.3847644 L70.7178205,76.3986311 L70.5298145,76.3986311 C70.5044912,76.3986311 70.4972012,76.379757 70.4972012,76.379757" id="Fill-41" fill="#882065"></path>
            </g>
        </g>
    </g>
</svg>