<svg version="1.1" id="Layer_1" xmlns="http://www.w3.org/2000/svg" x="0" y="0" viewBox="0 0 308.66 75.48" style="enable-background:new 0 0 308.66 75.48" xml:space="preserve"><style>.st1{fill:#98116d}</style><path class="st1" d="M157.97 48.43h4.25c.93 0 1.17-.15 1.17-.49 0-.29-.29-.39-.64-.39-.59 0-1.56-.15-3.03-.73-2.64-1.03-4.84-3.22-6.99-5.28-1.91-1.81-11.48-12.12-13.24-14.41 1.66-1.76 9.04-9.09 10.55-10.55 2.1-2.05 3.76-3.08 5.28-3.66.93-.34 2.15-.54 2.83-.54.49 0 .73-.1.73-.44 0-.34-.34-.44-.83-.44-1.51 0-4.2.15-5.72.15-1.32 0-4.01-.15-5.03-.15-.54 0-.78.1-.78.44 0 .29.2.39.63.49.49.1.68.44.68.98 0 .83-1.08 2.05-2.44 3.66-1.42 1.66-8.55 8.94-10.21 10.75h-.24v-2.15c0-7.43 0-8.79.1-10.36.1-1.71.49-2.54 1.81-2.78.59-.1.88-.15 1.37-.15.39 0 .68-.1.68-.44 0-.34-.34-.44-1.03-.44-1.66 0-4.74.15-5.91.15s-4.25-.15-6.84-.15c-.73 0-1.07.1-1.07.44 0 .34.29.44.83.44.68 0 1.51.05 1.91.15 1.61.34 2 1.12 2.1 2.78.1 1.56.1 2.93.1 10.36v8.6c0 4.49 0 8.35-.24 10.41-.2 1.42-.44 2.49-1.42 2.69-.44.1-1.03.2-1.76.2-.59 0-.78.15-.78.39 0 .34.34.49.98.49 1.95 0 5.03-.15 6.16-.15 1.22 0 4.3.15 7.04.15.54 0 .93-.15.93-.49 0-.24-.24-.39-.63-.39-.64 0-1.71-.1-2.39-.2-1.22-.2-1.66-1.27-1.76-2.64-.15-2.1-.15-5.96-.15-10.45v-4.45h.24l.54.73c1.03 1.42 10.65 12.7 12.8 14.61 2.1 1.86 3.42 2.93 6.06 3.18 1.01.08 1.89.08 3.36.08zM208.78 48.42c1.81 0 2.25-.1 2.25-.49 0-.34-.24-.39-.64-.39-.59 0-1.32-.05-2.05-.2-1.03-.24-2.44-.93-4.3-5.33-3.13-7.43-10.94-26.97-12.12-29.66-.49-1.12-.78-1.56-1.22-1.56-.49 0-.78.54-1.37 1.95l-12.26 30.29c-.98 2.44-1.91 4.1-4.15 4.4-.39.05-1.08.1-1.51.1-.39 0-.59.1-.59.39 0 .39.29.49.93.49 2.54 0 5.23-.15 5.77-.15 1.51 0 3.62.15 5.18.15.54 0 .83-.1.83-.49 0-.29-.15-.39-.73-.39h-.73c-1.52 0-1.95-.64-1.95-1.51 0-.59.24-1.76.73-2.98l2.64-6.69c.1-.29.2-.39.44-.39h10.9c.24 0 .39.1.49.34l3.91 10.06c.24.59-.1 1.03-.44 1.12-.49.05-.68.15-.68.44 0 .34.59.34 1.47.39 3.88.11 7.44.11 9.2.11zm-14.9-14.9h-8.99c-.2 0-.24-.15-.2-.34l4.5-11.97c.05-.2.15-.44.29-.44.15 0 .2.24.24.44l4.4 12.02c.06.14.01.29-.24.29zM235.79 11.48c-2.93 0-6.01.15-7.52.15-1.37 0-4.45-.15-7.04-.15-.73 0-1.07.1-1.07.44 0 .34.29.44.83.44.68 0 1.51.05 1.91.15 1.61.34 2 1.12 2.1 2.78.1 1.56.1 2.93.1 10.36v8.6c0 4.49 0 8.35-.24 10.41-.2 1.42-.44 2.49-1.42 2.69-.44.1-1.03.2-1.76.2-.59 0-.78.15-.78.39 0 .34.34.49.98.49.98 0 2.25-.1 3.37-.1 1.17-.05 2.25-.05 2.78-.05 1.22 0 2.93.15 4.79.29 1.86.15 3.86.29 5.62.29 9.04 0 14.12-3.47 16.37-5.77 2.74-2.78 5.32-7.47 5.32-13.63 0-5.81-2.3-9.87-4.74-12.41-5.34-5.57-13.49-5.57-19.6-5.57zm13.68 31.56c-2.93 2.54-6.25 3.52-11.24 3.52-3.86 0-5.76-1.03-6.4-1.95-.39-.54-.49-2.49-.54-3.71-.05-.93-.1-4.69-.1-9.87v-6.16c0-3.86 0-8.11.05-9.77 0-.54.15-.78.59-.98.39-.19 2.2-.34 3.18-.34 3.81 0 9.38.59 13.87 4.89 2.1 2 4.69 6.01 4.69 12.21 0 5.03-.97 9.48-4.1 12.16zM308.02 47.54c-.59 0-1.32-.05-2.05-.2-1.03-.24-2.44-.93-4.3-5.33-3.13-7.43-10.94-26.97-12.12-29.66-.49-1.12-.78-1.56-1.22-1.56-.49 0-.78.54-1.37 1.95l-12.26 30.3c-.98 2.44-1.91 4.1-4.15 4.4-.39.05-1.08.1-1.51.1-.39 0-.59.1-.59.39 0 .39.29.49.93.49 2.54 0 5.23-.15 5.77-.15 1.51 0 3.62.15 5.18.15.54 0 .83-.1.83-.49 0-.29-.15-.39-.73-.39h-.73c-1.51 0-1.95-.64-1.95-1.51 0-.59.24-1.76.73-2.98l2.64-6.69c.1-.29.2-.39.44-.39h10.9c.24 0 .39.1.49.34l3.91 10.06c.24.59-.1 1.03-.44 1.12-.49.05-.68.15-.68.44 0 .34.59.34 1.47.39 3.91.1 7.47.1 9.23.1 1.81 0 2.25-.1 2.25-.49-.03-.34-.28-.39-.67-.39zm-16.51-14.02h-8.99c-.2 0-.24-.15-.2-.34l4.49-11.97c.05-.2.15-.44.29-.44.15 0 .2.24.24.44l4.4 12.02c.06.14.01.29-.23.29zM87.27 10.64C75.98 12.19 68 22.01 69.44 32.56c1.44 10.56 11.77 17.85 23.06 16.3 11.29-1.55 19.27-11.37 17.83-21.92-1.45-10.55-11.77-17.85-23.06-16.3zm11.63 33.4c-1.95 1.73-4.33 2.6-7.15 2.6-4.7 0-8.47-1.78-11.33-5.35-2.75-3.37-4.13-7.68-4.13-12.95 0-5.56 1.34-9.64 4.03-12.26 2.11-2.06 4.9-3.09 8.36-3.09 4.23 0 7.72 1.59 10.47 4.76 2.85 3.33 4.28 7.68 4.28 13.05 0 6.18-1.51 10.59-4.53 13.24z"/><circle transform="rotate(-9.992 27.069 29.61)" class="st1" cx="27.07" cy="29.61" r="9.02"/><circle transform="rotate(-52.019 9.022 39.902)" class="st1" cx="9.02" cy="39.9" r="9.02"/><circle transform="rotate(-19.33 9.023 19.316)" class="st1" cx="9.02" cy="19.32" r="9.02"/><circle transform="rotate(-13.286 45.104 39.895)" class="st1" cx="45.11" cy="39.9" r="9.02"/><circle transform="rotate(-45.001 45.114 19.316)" class="st1" cx="45.11" cy="19.32" r="9.02"/><circle transform="rotate(-4.052 27.066 9.015)" class="st1" cx="27.07" cy="9.02" r="9.02"/><path class="st1" d="M27.07 59.22c4.98 0 9.02-4.04 9.02-9.02 0-4.98-4.04-9.02-9.02-9.02-4.98 0-9.02 4.04-9.02 9.02 0 4.98 4.03 9.02 9.02 9.02zM166.46 75.06c-.34 0-.7-.05-1.09-.14a.821.821 0 0 1-.56-.4c-.12-.2-.22-.54-.3-1l-1.6-8.56c-.06-.29-.16-.43-.32-.43-.13 0-.26.11-.39.33l-4.78 7.91-4.8-7.81c-.18-.29-.33-.43-.47-.43-.15 0-.25.12-.3.36l-1.74 9.03c-.13.67-.37 1.04-.72 1.09-.16.03-.34.04-.53.04s-.28.03-.28.1c0 .1.11.15.32.15.21 0 .53-.01.96-.02.43-.01.69-.02.78-.02.07 0 .32.01.76.02s.8.02 1.08.02.42-.05.42-.15c0-.06-.09-.1-.26-.1-.23 0-.48-.02-.74-.07-.35-.06-.53-.21-.53-.44 0-.22.02-.44.05-.65l.91-5.51h.07c.82 1.37 1.43 2.4 1.83 3.08.23.43.91 1.48 2.02 3.15.3.46.51.69.61.69.12 0 .33-.26.65-.78l3.83-6.3h.07l1.05 6.1c.06.36.03.56-.1.6-.12.04-.18.09-.18.15 0 .08.17.13.51.15.89.06 2.08.08 3.57.08.3 0 .46-.05.46-.15.02-.05-.07-.09-.26-.09zM181.65 75.06c-.28 0-.53-.02-.74-.06-.54-.09-1.05-.6-1.55-1.51-1.83-3.54-3.28-6.38-4.36-8.52-.16-.3-.31-.44-.44-.44-.14 0-.3.18-.49.55l-4.41 8.7c-.2.4-.39.68-.58.86-.23.22-.54.35-.91.39-.18.02-.36.03-.54.03-.14 0-.21.04-.21.11 0 .09.11.14.33.14.36 0 1.05-.01 2.07-.04.18 0 .48.01.92.02.44.01.75.02.94.02.2 0 .3-.05.3-.14 0-.07-.09-.11-.26-.11h-.26c-.47 0-.7-.14-.7-.43 0-.19.09-.48.26-.85l.95-1.98c.04-.07.09-.11.16-.11h3.92c.08 0 .14.03.18.1l1.41 2.94c.08.17.03.27-.16.32-.16.01-.25.05-.25.12 0 .06.18.1.53.11.76.02 1.87.03 3.32.03.3 0 .52-.01.63-.03.12-.02.18-.06.18-.11-.01-.07-.09-.11-.24-.11zM175.71 71h-3.23c-.07 0-.09-.03-.07-.1l1.62-3.41c.02-.08.06-.12.11-.12.04 0 .06.04.09.12l1.58 3.42c.01.07-.02.09-.1.09zM196.86 64.84c-.34 0-.71.01-1.11.02-.4.01-.6.02-.61.02-.08 0-.37-.01-.86-.02s-.91-.02-1.26-.02c-.3 0-.46.04-.46.12 0 .08.09.12.28.12.44 0 .76.03.93.08.26.08.43.26.53.54.04.13.06.37.07.71l.18 6.22h-.09c-1.38-1.13-2.67-2.18-3.86-3.16-2.67-2.15-4.48-3.63-5.45-4.45-.34-.29-.56-.43-.65-.43-.14 0-.22.16-.23.47l-.16 8.2c-.01.64-.05 1.06-.11 1.27-.07.24-.22.39-.44.44l-.61.06c-.3.02-.46.06-.46.12 0 .09.13.14.39.14.36 0 .77-.01 1.23-.02.46-.01.68-.02.67-.02.05 0 .31.01.79.02.48.01.94.02 1.39.02.27 0 .4-.05.4-.14 0-.06-.18-.1-.53-.14-.42-.04-.65-.06-.69-.07-.38-.1-.58-.61-.61-1.54l-.19-5.82h.05c.49.42.99.85 1.49 1.29 1 .85 1.89 1.58 2.69 2.2 2.33 1.84 4.06 3.2 5.18 4.07.27.2.47.3.6.3.14 0 .22-.14.23-.43l.19-8.74c.01-.34.05-.6.11-.76.13-.3.49-.46 1.07-.46.21 0 .32-.04.32-.12-.01-.05-.14-.09-.41-.09zM204.52 75.06c-.26 0-.55-.02-.89-.06-.42-.05-.65-.27-.7-.68-.05-.37-.07-1.38-.07-3.03v-2.44c0-1.65.01-2.63.03-2.94.03-.47.25-.73.64-.79.2-.03.38-.04.55-.04.17 0 .25-.05.25-.14 0-.07-.12-.11-.37-.11s-.63.01-1.16.02c-.53.01-.85.02-.98.02-.15 0-.51-.01-1.08-.02-.57-.01-.97-.02-1.2-.02-.28 0-.42.04-.42.11 0 .09.1.14.31.14.2 0 .41.02.61.06.36.07.56.33.6.78.02.3.04 1.28.04 2.94v2.44c0 1.61-.03 2.62-.09 3.03-.06.41-.23.64-.51.69-.18.01-.35.02-.53.04-.26.02-.39.06-.39.12 0 .09.12.14.35.14.26 0 .66-.01 1.22-.02.56-.01.89-.02.99-.02.11 0 .48.01 1.12.02.64.01 1.18.02 1.62.02.22 0 .33-.05.33-.14 0-.08-.09-.12-.27-.12zM215.43 73.15c-.11 0-.17.07-.19.21-.05.33-.2.61-.46.83-.3.26-.99.39-2.06.39-1.12 0-1.83-.1-2.13-.3-.16-.11-.27-.42-.32-.91-.04-.33-.05-1.02-.05-2.06v-2.44c0-1.65.01-2.63.04-2.94.04-.47.25-.73.65-.79.2-.03.43-.04.68-.04.21 0 .32-.04.32-.12 0-.08-.12-.12-.37-.12s-.68.01-1.29.02-.98.02-1.1.02c-.13 0-.49-.01-1.07-.02-.59-.01-1.03-.02-1.33-.02-.26 0-.39.04-.39.12 0 .08.1.12.3.12.45 0 .76.05.95.14.23.12.36.35.39.69.02.3.04 1.28.04 2.94v2.44c0 1.61-.03 2.59-.09 2.95-.07.46-.24.72-.51.76-.18.01-.35.02-.53.04-.26.02-.39.06-.39.12 0 .09.12.14.35.14.26 0 .66-.01 1.22-.02.56-.01.89-.02.99-.02.39 0 1.1.01 2.14.04s2.03.04 2.97.04c.37 0 .6-.01.69-.03.21-.04.35-.15.42-.35.18-.51.26-1.04.26-1.59.01-.16-.04-.24-.13-.24zM230.07 75.06c-.28 0-.53-.02-.74-.06-.54-.09-1.05-.6-1.55-1.51-1.83-3.54-3.28-6.38-4.36-8.52-.16-.3-.31-.44-.44-.44-.14 0-.3.18-.49.55l-4.41 8.7c-.2.4-.39.68-.58.86-.23.22-.54.35-.91.39-.18.02-.36.03-.54.03-.14 0-.21.04-.21.11 0 .09.11.14.33.14.36 0 1.05-.01 2.07-.04.18 0 .48.01.92.02.44.01.75.02.94.02.2 0 .3-.05.3-.14 0-.07-.09-.11-.26-.11h-.26c-.47 0-.7-.14-.7-.43 0-.19.09-.48.26-.85l.95-1.98c.04-.07.09-.11.16-.11h3.92c.08 0 .14.03.18.1l1.4 2.94c.08.17.03.27-.16.32-.16.01-.25.05-.25.12 0 .06.18.1.53.11.76.02 1.87.03 3.32.03.3 0 .52-.01.63-.03.12-.02.18-.06.18-.11-.01-.07-.08-.11-.23-.11zM224.13 71h-3.23c-.07 0-.09-.03-.07-.1l1.62-3.41c.02-.08.06-.12.11-.12.04 0 .06.04.09.12l1.58 3.42c.01.07-.02.09-.1.09zM236.23 68.2c-.97 0-1.79.33-2.46 1-.67.67-1.01 1.48-1.01 2.44 0 .98.33 1.8.99 2.45.66.65 1.49.98 2.49.98.96 0 1.78-.33 2.45-1 .67-.67 1.01-1.47 1.01-2.43 0-.99-.33-1.81-.98-2.46-.67-.65-1.5-.98-2.49-.98zm2.4 5.17h-.33c-.08 0-.22-.1-.4-.31-.46-.54-.83-.98-1.11-1.31.44-.4.67-.78.67-1.15 0-.29-.11-.52-.34-.68-.2-.15-.56-.22-1.09-.22h-1.39c-.07 0-.11.02-.11.06 0 .05.03.08.08.08.26.01.4.1.41.27.01.07.01.42.01 1.05v.88c0 .55-.01.9-.02 1.05-.01.12-.04.2-.08.22-.04.03-.14.04-.3.05-.06 0-.1.02-.1.07s.03.07.08.07h1.53c.05 0 .08-.03.1-.08-.01-.05-.04-.07-.09-.07-.19 0-.3-.02-.33-.06-.05-.06-.08-.38-.08-.95v-.4h.53c.2.29.36.54.5.74.3.41.53.65.68.74.12.06.33.1.63.1h.45c-.07.09-.13.19-.22.28-.55.58-1.24.87-2.07.87-.81 0-1.49-.3-2.06-.89-.57-.59-.85-1.3-.85-2.13 0-.86.28-1.58.83-2.16.55-.57 1.25-.86 2.09-.86.81 0 1.49.3 2.05.89.56.6.85 1.3.85 2.13-.02.65-.19 1.22-.52 1.72zm-1.88-2.5c0 .38-.1.63-.3.74-.09.05-.21.08-.38.08-.14 0-.26-.03-.35-.1V70c.05-.02.12-.04.23-.04.25 0 .44.08.58.25.15.16.22.38.22.66z"/></svg>